<?xml version="1.0" encoding="UTF-8"?>
<!-- Created with Inkscape (http://www.inkscape.org/) -->
<svg width="688.43mm" height="338.71mm" version="1.1" viewBox="0 0 688.43 338.71" xml:space="preserve" xmlns="http://www.w3.org/2000/svg"><g transform="translate(265.89 -14.655)"><g transform="rotate(-45 78.33 14.672)"><path d="m-165.06-228.72-0.0119 1e-5 0.01 12.5 0.31445 461.63a12.501 12.501 0 0 0 12.496 12.492l473.99 0.1622v-0.0109" color="#000000" stroke-linecap="square" stroke-linejoin="round" style="-inkscape-stroke:none"/><path d="m309.24 245.56h-461.8v-461.78" fill="#d8f999" stroke-width="0"/><g transform="translate(204.7 -19.523)"><path d="m3.2909 163.84v101.25a1.2501 1.2501 0 0 0 1.2501 1.2501h100a1.2501 1.2501 0 0 0 0.85421-0.39688l-2.1043-2.1038v5.2e-4h-97.5v-97.495z" color="#000000" stroke-linecap="round" stroke-linejoin="round" style="-inkscape-stroke:none"/><g transform="translate(-33.899 115.63)"><path transform="translate(1.25e-6)" d="m51.026 62.046v6.3335h0.99736v-4.6912c0-0.18188-0.0043-0.42781-0.0072-0.65267zm1.8805 1.88 1.7684 4.4535h0.90951l0.49919-1.2764-0.69143-0.69143c-0.08539 0.27102-0.17256 0.55054-0.24856 0.8046-0.14968-0.51746-0.33832-1.112-0.48783-1.5405z" stroke-linecap="round" stroke-linejoin="round" style="white-space:pre"/></g><g stop-color="#000000" stroke-linecap="round" stroke-linejoin="round" stroke-width=".26458" aria-label="$400"><g transform="matrix(2.0253 0 0 2.0253 -41.784 125.98)" fill="none" stroke="#000" stroke-linecap="round" stroke-linejoin="round" stroke-width=".52917"><path d="m40.077 58.661v-5.2917l2.6458 1.3229-2.6458 1.3229"/><path d="m39.019 56.544h2.3812"/><path d="m39.019 57.338h2.3812"/></g><path d="m40.517 247.06h0.95085l1e-6 -1.5372c2.4326-0.16639 3.8113-1.5927 3.8113-3.4072 3e-6 -2.2028-2.076-2.9159-3.3438-3.2646l-0.4675-0.12678 3e-6 -4.0015c1.1886 0.11885 2.0602 0.75275 2.179 1.7828l1.4738 1e-5c-0.07131-1.6878-1.5214-2.9872-3.6528-3.1299v-1.5768h-0.95085l-4e-6 1.6006c-1.9968 0.1981-3.4785 1.4659-3.4785 3.2884 0 1.5689 1.1093 2.5435 3.011 3.0823l0.4675 0.13471 4e-6 4.263c-1.1806-0.12678-2.1632-0.74484-2.2662-1.9255h-1.5451c0.12678 1.8542 1.5293 3.1299 3.8113 3.2804zm0.95085-2.8922v-3.9936l0.0082 2.8e-4c1.2599 0.35657 2.3375 0.77653 2.3375 1.9176-4e-6 1.1331-0.98254 1.9255-2.3454 2.076zm-0.95085-5.713c-0.85576-0.24564-2.0126-0.71314-2.0126-1.8383 0-0.97462 0.78445-1.7194 2.0126-1.8859z" display="none"/><path d="m47.085 242.92h5.5545v2.4009h1.4421v-2.4009h1.6006v-1.3233h-1.6006v-8.0822h-1.8304l-5.1663 8.1773zm5.5625-1.3233h-3.9539v-0.0951l3.8589-6.1013h0.09508z"/><path d="m61.736 245.48c2.6386 0 4.152-2.2107 4.152-6.0537 0-3.8272-1.5372-6.0696-4.152-6.0696s-4.152 2.2424-4.152 6.0696c0 3.8509 1.5214 6.0537 4.152 6.0537zm0-1.3153c-1.7274 0-2.702-1.7432-2.702-4.7384 0-3.0031 0.97462-4.7622 2.702-4.7622 1.7274 0 2.702 1.7511 2.702 4.7622 0 2.9952-0.97462 4.7384-2.702 4.7384z"/><path d="m72.919 233.46c-0.2969-0.07127-0.61219-0.10743-0.94494-0.10743-2.6148 0-4.1518 2.2423-4.1518 6.0694 0 3.8509 1.5211 6.0541 4.1518 6.0541 2.6386 0 4.1521-2.2107 4.1521-6.0537 0-1.258-0.16609-2.3449-0.48197-3.2372l-2.7252-2.7252zm0.56054 1.8007c0.77676 0.75197 1.1963 2.1853 1.1963 4.1613 0 2.9952-0.97445 4.7386-2.7018 4.7386s-2.7018-1.7434-2.7018-4.7386c0-3.0031 0.97445-4.762 2.7018-4.762 0.59378 0 1.0986 0.20684 1.5055 0.60073z"/></g></g><g transform="translate(104.7 -19.523)"><path d="m41.479 102.03h-36.938a1.2501 1.2501 0 0 0-1.2501 1.25v161.8a1.2501 1.2501 0 0 0 1.2501 1.2501h100a1.2501 1.2501 0 0 0 1.2501-1.2501v-98.745l-2.5001-2.5001v99.995h-97.5v-159.3h38.188z" color="#000000" stroke-linecap="round" stroke-linejoin="round" style="-inkscape-stroke:none"/><g stroke-linecap="round" stroke-linejoin="round"><path d="m42.728 103.28h-38.187v23.902h62.091z" color="#000000" fill="#615ff7" stroke-width="2.5" style="-inkscape-stroke:none"/><path d="m41.479 102.03h-36.938a1.2501 1.2501 0 0 0-1.2501 1.25v23.902a1.2501 1.2501 0 0 0 1.2501 1.25h63.341l-2.5001-2.5001h-59.591v-21.402h38.188z" color="#000000" style="-inkscape-stroke:none"/></g><g transform="translate(-33.899 115.63)"><g transform="translate(48.798 -44.894)" stroke-linecap="round" stroke-linejoin="round" style="shape-inside:url(#rect11754);white-space:pre" aria-label="Cryptography"><path d="m8.857 113.84c1.6812 0 3.0262-1.0253 3.3128-2.6954h-1.0473c-0.23151 1.119-1.1906 1.7253-2.2655 1.7253-1.4717 0-2.6238-1.141-2.6238-3.2412 0-2.1056 1.1465-3.2522 2.6238-3.2522 1.0694 0 2.034 0.60082 2.2655 1.7253h1.0473c-0.29214-1.6922-1.6481-2.6954-3.3128-2.6954-2.1056 0-3.6435 1.6151-3.6435 4.2223 0 2.6017 1.5379 4.2113 3.6435 4.2113z"/><path d="m13.658 113.73h0.99219v-3.8585c0-0.83233 0.65044-1.4332 1.5379-1.4332 0.26458 0 0.53468 0.0441 0.59531 0.0551v-0.99771c-0.11576-6e-3 -0.35829-0.0165-0.50161-0.0165-0.73312 0-1.3725 0.41341-1.5985 1.0363h-0.06615v-0.94809h-0.95912z"/><path d="m17.985 115.96c0.10473 0.0496 0.37483 0.11576 0.7276 0.11576 0.87092 0 1.4662-0.44649 1.8411-1.4276l2.7065-7.0831h-1.0804l-1.3229 3.6546c-0.19292 0.53468-0.33624 1.0694-0.47404 1.582-0.14332-0.51263-0.28112-1.0418-0.47405-1.582l-1.3119-3.6546h-1.0859l2.3537 6.1957-0.17639 0.51263c-0.30317 0.88194-0.73863 1.0142-1.345 0.85438l-0.10473-0.0276z"/><path d="m24.429 116.03h0.99219v-3.2577h0.07717c0.20395 0.34176 0.61736 1.0859 1.7915 1.0859 1.5379 0 2.6073-1.2347 2.6073-3.197 0-1.9513-1.0749-3.175-2.6128-3.175-1.2016 0-1.582 0.73863-1.7859 1.0638h-0.11024v-0.98668h-0.95912zm2.712-3.0592c-1.119 0-1.7308-0.94809-1.7308-2.3206 0-1.3615 0.59531-2.2765 1.7308-2.2765 1.1686 0 1.7474 0.9977 1.7474 2.2765 0 1.2954-0.59531 2.3206-1.7474 2.3206z"/><path d="m33.766 107.56h-1.2678v-1.4662h-0.99219v1.4662h-0.92604v0.84887h0.92604v3.7924c0 1.0087 0.62839 1.5985 1.6922 1.5985 0.25356 0 0.53468-0.0386 0.73863-0.11025l-0.20395-0.83785c-0.16536 0.0331-0.38034 0.0661-0.50712 0.0661-0.52366 0-0.7276-0.24253-0.7276-0.79375v-3.7152h1.2678z"/><path d="m37.432 113.86c1.6812 0 2.8167-1.2733 2.8167-3.175 0-1.9292-1.1355-3.197-2.8167-3.197-1.6757 0-2.8057 1.2678-2.8057 3.197 0 1.9017 1.13 3.175 2.8057 3.175zm0-0.88746c-1.2292 0-1.797-1.0749-1.797-2.2876 0-1.2292 0.56775-2.3096 1.797-2.3096 1.2457 0 1.8135 1.0859 1.8135 2.3096 0 1.2127-0.56775 2.2876-1.8135 2.2876z"/><path d="m44.19 116.16c1.4993 0 2.6844-0.68351 2.6844-2.2765v-6.3224h-0.96463v0.98668h-0.09371c-0.20946-0.33073-0.60634-1.0638-1.797-1.0638-1.5379 0-2.6238 1.2237-2.6238 3.1309 0 1.9348 1.1245 3.0096 2.6017 3.0096 1.1906 0 1.582-0.678 1.7915-1.0308h0.09371v1.2347c0 1.0142-0.71107 1.4662-1.6922 1.4662-1.0859 0-1.4717-0.55122-1.7308-0.90951l-0.80478 0.51815c0.38034 0.67799 1.1686 1.2568 2.5356 1.2568zm-0.02756-3.4175c-1.1576 0-1.7584-0.88194-1.7584-2.1497 0-1.2292 0.58429-2.2214 1.7584-2.2214 1.1355 0 1.7308 0.91502 1.7308 2.2214 0 1.345-0.61185 2.1497-1.7308 2.1497z"/><path d="m48.616 113.73h0.99219v-3.8585c0-0.83233 0.65044-1.4332 1.5379-1.4332 0.26458 0 0.53468 0.0441 0.59531 0.0551v-0.99771c-0.11576-6e-3 -0.35829-0.0165-0.50161-0.0165-0.73312 0-1.3725 0.41341-1.5985 1.0363h-0.06615v-0.94809h-0.95912z"/><path d="m54.591 113.87c1.0418 0 1.6206-0.5457 1.83-0.98116h0.06615v0.83785h0.97565v-4.0625c0-1.9237-1.4828-2.1773-2.3096-2.1773-0.9536 0-2.0119 0.34176-2.486 1.4607l0.9536 0.3142c0.19292-0.42995 0.67248-0.904 1.5599-0.904 0.85438 0 1.2898 0.44098 1.2898 1.2072v0.0331c0 0.45751-0.48507 0.42444-1.582 0.56224-1.141 0.14332-2.3978 0.40239-2.3978 1.8135 0 1.2127 0.93156 1.8962 2.1001 1.8962zm0.17088-0.87643c-0.73863 0-1.2733-0.33073-1.2733-0.97014 0-0.70005 0.6339-0.93156 1.356-1.0253 0.38034-0.0496 1.4607-0.15986 1.6261-0.35278v0.85438c0 0.75517-0.61185 1.4938-1.7088 1.4938z"/><path d="m59.205 116.03h0.99219v-3.2577h0.07717c0.20395 0.34176 0.61736 1.0859 1.7915 1.0859 1.5379 0 2.6073-1.2347 2.6073-3.197 0-1.9513-1.0749-3.175-2.6128-3.175-1.2017 0-1.582 0.73863-1.7859 1.0638h-0.11024v-0.98668h-0.95912zm2.712-3.0592c-1.119 0-1.7308-0.94809-1.7308-2.3206 0-1.3615 0.59531-2.2765 1.7308-2.2765 1.1686 0 1.7474 0.9977 1.7474 2.2765 0 1.2954-0.59531 2.3206-1.7474 2.3206z"/><path d="m67.11 110.03c0-1.0528 0.66697-1.6536 1.5544-1.6536 0.8599 0 1.3891 0.56775 1.3891 1.5158v3.831h0.9977v-3.9136c0-1.5599-0.84336-2.3261-2.0891-2.3261-0.80478 0-1.4497 0.32522-1.8521 1.1465v-3.1199h-0.99219v8.2131h0.99219z"/><path d="m72.528 115.96c0.10473 0.0496 0.37483 0.11576 0.7276 0.11576 0.87092 0 1.4662-0.44649 1.8411-1.4276l2.7065-7.0831h-1.0804l-1.3229 3.6546c-0.19292 0.53468-0.33624 1.0694-0.47405 1.582-0.14332-0.51263-0.28112-1.0418-0.47404-1.582l-1.3119-3.6546h-1.0859l2.3537 6.1957-0.17639 0.51263c-0.30317 0.88194-0.73863 1.0142-1.345 0.85438l-0.10473-0.0276z"/></g></g><g transform="matrix(2.0253 0 0 2.0253 -41.432 125.98)" fill="none" stroke="#000" stroke-linecap="round" stroke-linejoin="round" stroke-width=".52917"><path d="m40.077 58.661v-5.2917l2.6458 1.3229-2.6458 1.3229"/><path d="m39.019 56.544h2.3812"/><path d="m39.019 57.338h2.3812"/></g><g stop-color="#000000" stroke-linecap="round" stroke-linejoin="round" stroke-width=".26458" aria-label="$420"><path d="m40.868 247.06h0.95085v-1.5372c2.4326-0.16639 3.8113-1.5927 3.8113-3.4072 3e-6 -2.2028-2.076-2.9159-3.3438-3.2646l-0.4675-0.12678 3e-6 -4.0015c1.1886 0.11885 2.0602 0.75275 2.179 1.7828l1.4738 1e-5c-0.07131-1.6878-1.5214-2.9872-3.6528-3.1299v-1.5768h-0.95085l-3e-6 1.6006c-1.9968 0.1981-3.4785 1.4659-3.4785 3.2884 0 1.5689 1.1093 2.5435 3.011 3.0823l0.4675 0.13471 4e-6 4.263c-1.1806-0.12678-2.1632-0.74484-2.2662-1.9255h-1.5451c0.12678 1.8542 1.5293 3.1299 3.8113 3.2804zm0.95085-2.8922v-3.9936l0.0082 2.8e-4c1.2599 0.35657 2.3375 0.77653 2.3375 1.9176-3e-6 1.1331-0.98254 1.9255-2.3454 2.076zm-0.95085-5.713c-0.85576-0.24564-2.0126-0.71314-2.0126-1.8383 1e-6 -0.97462 0.78445-1.7194 2.0126-1.8859z" display="none"/><path d="m47.437 242.92h5.5545v2.4009h1.4421v-2.4009h1.6006v-1.3233h-1.6006v-8.0822h-1.8304l-5.1663 8.1773zm5.5625-1.3233h-3.9539v-0.0951l3.8589-6.1013h0.09508z"/><path d="m58.189 245.32h7.5196v-1.3233h-5.4436v-0.0951l2.5831-2.7495c2.0839-2.2186 2.6624-3.225 2.6624-4.5007 0-1.8462-1.4976-3.2963-3.6053-3.2963-2.0998 0-3.6845 1.4184-3.6845 3.5102h1.4421c0-1.3312 0.85576-2.2028 2.2028-2.2028 1.2599 0 2.2186 0.7686 2.2186 2.0047 0 1.0856-0.66559 1.8938-1.973 3.3121l-3.9222 4.255z"/><path d="m71.985 245.48c2.6386 0 4.152-2.2107 4.152-6.0537 0-3.8272-1.5372-6.0696-4.152-6.0696s-4.152 2.2424-4.152 6.0696c0 3.8509 1.5214 6.0537 4.152 6.0537zm0-1.3153c-1.7274 0-2.702-1.7432-2.702-4.7384 0-3.0031 0.97462-4.7622 2.702-4.7622s2.702 1.7511 2.702 4.7622c0 2.9952-0.97462 4.7384-2.702 4.7384z"/></g></g><g stroke-linejoin="round"><g transform="translate(4.6984 -19.523)" stroke-linecap="round"><path d="m4.541 103.28h100v161.8h-100z" fill="#d8f999" stroke="#000" stroke-width="2.5"/><path d="m4.541 103.28h100v23.903h-100z" fill="#fb2c36" stroke="#000" stroke-width="2.5"/><g transform="translate(-15.425 109.12)"><g transform="translate(34.777 -34.509)" style="shape-inside:url(#rect11768);white-space:pre" aria-label="exploitation"><path d="m8.0027 113.86c1.2623 0 2.1828-0.6339 2.4694-1.5655l-0.95912-0.26458c-0.23151 0.62839-0.77721 0.94809-1.5048 0.94809-1.0914 0-1.8411-0.70555-1.8907-1.9954h4.4538v-0.41341c0-2.2765-1.378-3.0813-2.6844-3.0813-1.6812 0-2.7726 1.3174-2.7726 3.2081 0 1.8962 1.1024 3.164 2.8884 3.164zm-1.8796-3.7152c0.060634-0.94258 0.70556-1.7749 1.7639-1.7749 1.0142 0 1.582 0.7276 1.6757 1.7749z"/><path d="m11.227 113.73h1.1465l0.91502-1.3836c0.27561-0.41892 0.46302-0.79375 0.65043-1.141 0.20395 0.34726 0.4079 0.72209 0.678 1.141l0.90399 1.3836h1.152l-2.1608-3.1089 2.0615-3.0537h-1.1355l-0.78273 1.1961c-0.28663 0.43546-0.47405 0.83234-0.67248 1.2016-0.21497-0.36931-0.42444-0.76619-0.70556-1.2016l-0.76619-1.1961h-1.1576l2.0395 2.9986z"/><path d="m17.902 116.03h0.99219v-3.2577h0.07717c0.20395 0.34176 0.61736 1.0859 1.7915 1.0859 1.5379 0 2.6073-1.2347 2.6073-3.197 0-1.9513-1.0749-3.175-2.6128-3.175-1.2017 0-1.582 0.73863-1.7859 1.0638h-0.11024v-0.98668h-0.95912zm2.712-3.0592c-1.119 0-1.7308-0.94809-1.7308-2.3206 0-1.3615 0.59531-2.2765 1.7308-2.2765 1.1686 0 1.7474 0.9977 1.7474 2.2765 0 1.2954-0.59531 2.3206-1.7474 2.3206z"/><path d="m25.807 105.51h-0.99219v8.2131h0.99219z"/><path d="m30.057 113.86c1.6812 0 2.8167-1.2733 2.8167-3.175 0-1.9292-1.1355-3.197-2.8167-3.197-1.6757 0-2.8057 1.2678-2.8057 3.197 0 1.9017 1.13 3.175 2.8057 3.175zm0-0.88746c-1.2292 0-1.797-1.0749-1.797-2.2876 0-1.2292 0.56775-2.3096 1.797-2.3096 1.2457 0 1.8135 1.0859 1.8135 2.3096 0 1.2127-0.56775 2.2876-1.8135 2.2876z"/><path d="m34.318 113.73h0.99219v-6.1626h-0.99219zm0.50161-7.1713c0.38034 0 0.69453-0.29215 0.69453-0.65595s-0.31419-0.65595-0.69453-0.65595c-0.37483 0-0.68902 0.29215-0.68902 0.65595s0.31419 0.65595 0.68902 0.65595z"/><path d="m39.477 107.56h-1.2678v-1.4662h-0.99219v1.4662h-0.92604v0.84887h0.92604v3.7924c0 1.0087 0.62839 1.5985 1.6922 1.5985 0.25356 0 0.53468-0.0386 0.73863-0.11025l-0.20395-0.83785c-0.16536 0.0331-0.38034 0.0661-0.50712 0.0661-0.52366 0-0.7276-0.24253-0.7276-0.79375v-3.7152h1.2678z"/><path d="m42.525 113.87c1.0418 0 1.6206-0.5457 1.83-0.98116h0.06614v0.83785h0.97565v-4.0625c0-1.9237-1.4828-2.1773-2.3096-2.1773-0.9536 0-2.0119 0.34176-2.486 1.4607l0.9536 0.3142c0.19293-0.42995 0.67248-0.904 1.5599-0.904 0.85438 0 1.2898 0.44098 1.2898 1.2072v0.0331c0 0.45751-0.48507 0.42444-1.582 0.56224-1.141 0.14332-2.3978 0.40239-2.3978 1.8135 0 1.2127 0.93155 1.8962 2.1001 1.8962zm0.17088-0.87643c-0.73863 0-1.2733-0.33073-1.2733-0.97014 0-0.70005 0.6339-0.93156 1.356-1.0253 0.38034-0.0496 1.4607-0.15986 1.6261-0.35278v0.85438c0 0.75517-0.61185 1.4938-1.7088 1.4938z"/><path d="m49.564 107.56h-1.2678v-1.4662h-0.99219v1.4662h-0.92604v0.84887h0.92604v3.7924c0 1.0087 0.62839 1.5985 1.6922 1.5985 0.25356 0 0.53468-0.0386 0.73863-0.11025l-0.20395-0.83785c-0.16536 0.0331-0.38034 0.0661-0.50712 0.0661-0.52366 0-0.7276-0.24253-0.7276-0.79375v-3.7152h1.2678z"/><path d="m50.832 113.73h0.99219v-6.1626h-0.99219zm0.50161-7.1713c0.38034 0 0.69453-0.29215 0.69453-0.65595s-0.31419-0.65595-0.69453-0.65595c-0.37483 0-0.68902 0.29215-0.68902 0.65595s0.31419 0.65595 0.68902 0.65595z"/><path d="m56.074 113.86c1.6812 0 2.8167-1.2733 2.8167-3.175 0-1.9292-1.1355-3.197-2.8167-3.197-1.6757 0-2.8057 1.2678-2.8057 3.197 0 1.9017 1.13 3.175 2.8057 3.175zm0-0.88746c-1.2292 0-1.797-1.0749-1.797-2.2876 0-1.2292 0.56775-2.3096 1.797-2.3096 1.2457 0 1.8135 1.0859 1.8135 2.3096 0 1.2127-0.56775 2.2876-1.8135 2.2876z"/><path d="m61.327 110.03c0-1.0528 0.66697-1.6536 1.5544-1.6536 0.8599 0 1.3891 0.56775 1.3891 1.5158v3.831h0.99219v-3.9136c0-1.5599-0.83785-2.3261-2.0836-2.3261-0.82682 0-1.4883 0.34727-1.8852 1.2182l-0.0055-1.141h-0.9536v6.1626h0.99219z"/></g><g transform="translate(48.128 -45.34)" style="shape-inside:url(#rect11768);white-space:pre" aria-label="Binary"><path d="m5.5332 113.73h3.0041c1.9348 0 2.7506-0.9481 2.7506-2.1883 0-1.2898-0.89848-1.9954-1.6647-2.045v-0.0772c0.71658-0.19293 1.345-0.67249 1.345-1.7253 0-1.2016-0.81029-2.1773-2.5246-2.1773h-2.9104zm1.0473-0.92605v-2.8002h1.9844c1.0528 0 1.7143 0.70555 1.7143 1.5269 0 0.71107-0.49058 1.2733-1.7694 1.2733zm0-3.6821v-2.6789h1.8411c1.0638 0 1.5434 0.56224 1.5434 1.2733 0 0.84887-0.69453 1.4056-1.5765 1.4056z"/><path d="m12.798 113.73h0.99219v-6.1626h-0.99219zm0.50161-7.1713c0.38034 0 0.69453-0.29215 0.69453-0.65595s-0.31419-0.65595-0.69453-0.65595c-0.37483 0-0.68902 0.29215-0.68902 0.65595s0.31419 0.65595 0.68902 0.65595z"/><path d="m16.524 110.03c0-1.0528 0.66697-1.6536 1.5544-1.6536 0.8599 0 1.3891 0.56775 1.3891 1.5158v3.831h0.99219v-3.9136c0-1.5599-0.83785-2.3261-2.0836-2.3261-0.82682 0-1.4883 0.34727-1.8852 1.2182l-0.0055-1.141h-0.95362v6.1626h0.99219z"/><path d="m23.927 113.87c1.0418 0 1.6206-0.5457 1.83-0.98116h0.06615v0.83785h0.97565v-4.0625c0-1.9237-1.4828-2.1773-2.3096-2.1773-0.9536 0-2.0119 0.34176-2.486 1.4607l0.9536 0.3142c0.19292-0.42995 0.67248-0.904 1.5599-0.904 0.85438 0 1.2898 0.44098 1.2898 1.2072v0.0331c0 0.45751-0.48507 0.42444-1.582 0.56224-1.141 0.14332-2.3978 0.40239-2.3978 1.8135 0 1.2127 0.93156 1.8962 2.1001 1.8962zm0.17088-0.87643c-0.73863 0-1.2733-0.33073-1.2733-0.97014 0-0.70005 0.6339-0.93156 1.356-1.0253 0.38034-0.0496 1.4607-0.15986 1.6261-0.35278v0.85438c0 0.75517-0.61185 1.4938-1.7088 1.4938z"/><path d="m28.541 113.73h0.99219v-3.8585c0-0.83233 0.65044-1.4332 1.5379-1.4332 0.26458 0 0.53468 0.0441 0.59531 0.0551v-0.99771c-0.11576-6e-3 -0.35829-0.0165-0.50161-0.0165-0.73312 0-1.3725 0.41341-1.5985 1.0363h-0.06615v-0.94809h-0.95912z"/><path d="m32.868 115.96c0.10473 0.0496 0.37483 0.11576 0.7276 0.11576 0.87092 0 1.4662-0.44649 1.8411-1.4276l2.7065-7.0831h-1.0804l-1.3229 3.6546c-0.19293 0.53468-0.33624 1.0694-0.47405 1.582-0.14332-0.51263-0.28112-1.0418-0.47404-1.582l-1.3119-3.6546h-1.0859l2.3537 6.1957-0.17639 0.51263c-0.30317 0.88194-0.73863 1.0142-1.345 0.85438l-0.10473-0.0276z"/></g></g><g transform="matrix(2.0253 0 0 2.0253 -42.831 125.08)" fill="none" stroke="#000" stroke-linecap="round" stroke-linejoin="round" stroke-width=".52917"><path d="m40.077 58.661v-5.2917l2.6458 1.3229-2.6458 1.3229"/><path d="m39.019 56.544h2.3812"/><path d="m39.019 57.338h2.3812"/></g><g stop-color="#000000" stroke-width=".26458" aria-label="$500"><path d="m39.469 246.16h0.95085v-1.5372c2.4326-0.16639 3.8113-1.5927 3.8113-3.4072 3e-6 -2.2028-2.076-2.9159-3.3438-3.2646l-0.4675-0.12678 3e-6 -4.0015c1.1886 0.11885 2.0602 0.75275 2.179 1.7828l1.4738 1e-5c-0.07131-1.6878-1.5214-2.9872-3.6528-3.1299v-1.5768h-0.95085l2e-6 1.6006c-1.9968 0.1981-3.4785 1.4659-3.4785 3.2884 0 1.5689 1.1093 2.5435 3.011 3.0823l0.4675 0.13471 2e-6 4.263c-1.1806-0.12677-2.1632-0.74483-2.2662-1.9255h-1.5451c0.12678 1.8542 1.5293 3.1299 3.8113 3.2804zm0.95085-2.8922 2e-6 -3.9936 0.0082 2.8e-4c1.2599 0.35657 2.3375 0.77653 2.3375 1.9176-3e-6 1.1331-0.98254 1.9255-2.3454 2.076zm-0.95085-5.713c-0.85576-0.24564-2.0126-0.71314-2.0126-1.8383 1e-6 -0.97462 0.78445-1.7194 2.0127-1.8858z" display="none"/><path d="m50.047 244.58c2.2741 0 3.9381-1.664 3.9381-3.9302 0-2.282-1.5927-3.9539-3.7558-3.9539-0.81614 0-1.6006 0.28525-2.0839 0.68936h-0.06339l0.40411-3.4468h4.9444v-1.3233h-6.2122l-0.69729 5.8477 1.4104 0.17432c0.4675-0.35657 1.2916-0.61805 2.0206-0.61805 1.4817 0 2.5594 1.1331 2.5594 2.6544 0 1.4976-1.038 2.5831-2.4643 2.5831-1.1886 0-2.1553-0.76067-2.2503-1.8145h-1.458c0.07924 1.8066 1.6323 3.1378 3.7083 3.1378z"/><path d="m60.071 244.58c2.6386 0 4.152-2.2107 4.152-6.0537 0-3.8272-1.5372-6.0696-4.152-6.0696-2.6148 0-4.152 2.2424-4.152 6.0696 0 3.8509 1.5214 6.0537 4.152 6.0537zm0-1.3153c-1.7274 0-2.702-1.7432-2.702-4.7384 0-3.0031 0.97462-4.7622 2.702-4.7622 1.7274 0 2.702 1.7511 2.702 4.7622 0 2.9952-0.97462 4.7384-2.702 4.7384z"/><path d="m70.308 244.58c2.6386 0 4.152-2.2107 4.152-6.0537 0-3.8272-1.5372-6.0696-4.152-6.0696s-4.152 2.2424-4.152 6.0696c0 3.8509 1.5214 6.0537 4.152 6.0537zm0-1.3153c-1.7274 0-2.702-1.7432-2.702-4.7384 0-3.0031 0.97462-4.7622 2.702-4.7622 1.7274 0 2.702 1.7511 2.702 4.7622 0 2.9952-0.97462 4.7384-2.702 4.7384z"/></g></g><path d="m-152.25 83.911h161.49v161.49h-161.49z" fill="#d8f999" stroke="#000" stroke-linecap="round" stroke-width="2.8539"/><g transform="rotate(45 -53.392 151.25)" fill="#030402" stroke-linecap="square" stroke-width="15"><g aria-label="Collect all the flags in"><path d="m-80.99 146.35c1.8914 0 3.4044-1.1534 3.7269-3.0324h-1.1782c-0.26045 1.2588-1.3395 1.941-2.5487 1.941-1.6557 0-2.9518-1.2836-2.9518-3.6463 0-2.3688 1.2898-3.6587 2.9518-3.6587 1.203 0 2.2882 0.67593 2.5487 1.941h1.1782c-0.32866-1.9038-1.8542-3.0324-3.7269-3.0324-2.3688 0-4.099 1.8169-4.099 4.7501 0 2.927 1.7301 4.7377 4.099 4.7377z"/><path d="m-72.767 146.38c1.8914 0 3.1688-1.4325 3.1688-3.5719 0-2.1704-1.2774-3.5967-3.1688-3.5967-1.8852 0-3.1564 1.4263-3.1564 3.5967 0 2.1394 1.2712 3.5719 3.1564 3.5719zm0-0.99839c-1.3829 0-2.0216-1.2092-2.0216-2.5735 0-1.3829 0.63872-2.5983 2.0216-2.5983 1.4015 0 2.0402 1.2216 2.0402 2.5983 0 1.3643-0.63872 2.5735-2.0402 2.5735z"/><path d="m-66.858 136.99h-1.1162v9.2398h1.1162z"/><path d="m-63.782 136.99h-1.1162v9.2398h1.1162z"/><path d="m-58.908 146.38c1.4201 0 2.4557-0.71313 2.7781-1.7611l-1.079-0.29766c-0.26045 0.70694-0.87436 1.0666-1.6929 1.0666-1.2278 0-2.0712-0.79375-2.127-2.2448h5.0105v-0.46509c0-2.5611-1.5503-3.4664-3.02-3.4664-1.8914 0-3.1192 1.4821-3.1192 3.6091 0 2.1332 1.2402 3.5595 3.2494 3.5595zm-2.1146-4.1796c0.06821-1.0604 0.79375-1.9968 1.9844-1.9968 1.141 0 1.7797 0.81855 1.8852 1.9968z"/><path d="m-51.597 146.38c1.3581 0 2.4619-0.73794 2.8339-1.972l-1.0666-0.30386c-0.20464 0.75034-0.83716 1.2774-1.7673 1.2774-1.3829 0-2.0216-1.2092-2.0216-2.5735 0-1.3829 0.63872-2.5983 2.0216-2.5983 0.91157 0 1.5317 0.50849 1.7363 1.2216l1.0728-0.30386c-0.37827-1.2092-1.4697-1.9162-2.8091-1.9162-1.8852 0-3.1564 1.4263-3.1564 3.5967 0 2.1394 1.2712 3.5719 3.1564 3.5719z"/><path d="m-44.434 139.3h-1.4263v-1.6495h-1.1162v1.6495h-1.0418v0.95499h1.0418v4.2664c0 1.1348 0.70693 1.7983 1.9038 1.7983 0.28525 0 0.60151-0.0434 0.83096-0.12402l-0.22944-0.94258c-0.18604 0.0372-0.42788 0.0744-0.57051 0.0744-0.58911 0-0.81856-0.27285-0.81856-0.89296v-4.1796h1.4263z"/><path d="m-37.495 146.39c1.172 0 1.8231-0.61392 2.0588-1.1038h0.07441v0.94258h1.0976v-4.5703c0-2.1642-1.6681-2.4495-2.5983-2.4495-1.0728 0-2.2634 0.38447-2.7967 1.6433l1.0728 0.35347c0.21704-0.4837 0.75654-1.017 1.7549-1.017 0.96118 0 1.4511 0.4961 1.4511 1.3581v0.0372c0 0.51469-0.5457 0.47749-1.7797 0.63252-1.2836 0.16123-2.6975 0.45268-2.6975 2.0402 0 1.3643 1.048 2.1332 2.3626 2.1332zm0.19224-0.98599c-0.83096 0-1.4325-0.37207-1.4325-1.0914 0-0.78755 0.71314-1.048 1.5255-1.1534 0.42788-0.0558 1.6433-0.17983 1.8293-0.39687v0.96118c0 0.84956-0.68833 1.6805-1.9224 1.6805z"/><path d="m-31.189 136.99h-1.1162v9.2398h1.1162z"/><path d="m-28.113 136.99h-1.1162v9.2398h1.1162z"/><path d="m-85.877 155.17h-1.4263v-1.6495h-1.1162v1.6495h-1.0418v0.95499h1.0418v4.2664c0 1.1348 0.70693 1.7983 1.9038 1.7983 0.28525 0 0.60151-0.0434 0.83096-0.12402l-0.22944-0.94258c-0.18604 0.0372-0.42788 0.0744-0.57051 0.0744-0.58911 0-0.81855-0.27285-0.81855-0.89297v-4.1796h1.4263z"/><path d="m-83.334 157.95c0-1.1844 0.75034-1.8604 1.7487-1.8604 0.96738 0 1.5627 0.63872 1.5627 1.7053v4.3098h1.1224v-4.4028c0-1.7549-0.94878-2.6169-2.3502-2.6169-0.90537 0-1.6309 0.36587-2.0836 1.2898v-3.5099h-1.1162v9.2397h1.1162z"/><path d="m-74.026 162.25c1.4201 0 2.4557-0.71313 2.7781-1.7611l-1.079-0.29766c-0.26045 0.70694-0.87436 1.0666-1.6929 1.0666-1.2278 0-2.0712-0.79375-2.127-2.2448h5.0105v-0.46509c0-2.5611-1.5503-3.4664-3.02-3.4664-1.8914 0-3.1192 1.4821-3.1192 3.6091 0 2.1332 1.2402 3.5595 3.2494 3.5595zm-2.1146-4.1796c0.06821-1.0604 0.79375-1.9968 1.9844-1.9968 1.141 0 1.7797 0.81855 1.8852 1.9968z"/><path d="m-62.74 155.17h-1.5999v-0.67592c0-0.66973 0.29766-1.0294 0.98599-1.0294 0.31006 0 0.48369 0.0682 0.60151 0.10542l0.31006-0.95498c-0.16743-0.0744-0.5147-0.18603-1.0418-0.18603-1.0108 0-1.972 0.61391-1.972 1.8169v0.92397h-1.3643v0.95499h1.3643v5.9779h1.1162v-5.9779h1.5999z"/><path d="m-60.148 152.86h-1.1162v9.2397h1.1162z"/><path d="m-56.247 162.27c1.172 0 1.8231-0.61392 2.0588-1.1038h0.07441v0.94257h1.0976v-4.5703c0-2.1642-1.6681-2.4495-2.5983-2.4495-1.0728 0-2.2634 0.38447-2.7967 1.6433l1.0728 0.35347c0.21704-0.4837 0.75654-1.017 1.7549-1.017 0.96118 0 1.4511 0.4961 1.4511 1.3581v0.0372c0 0.51469-0.5457 0.47749-1.7797 0.63252-1.2836 0.16123-2.6975 0.45268-2.6975 2.0402 0 1.3643 1.048 2.1332 2.3626 2.1332zm0.19224-0.98599c-0.83096 0-1.4325-0.37207-1.4325-1.0914 0-0.78755 0.71314-1.048 1.5255-1.1534 0.42788-0.0558 1.6433-0.17983 1.8293-0.39687v0.96118c0 0.84956-0.68833 1.6805-1.9224 1.6805z"/><path d="m-48.248 164.84c1.6867 0 3.02-0.76894 3.02-2.5611v-7.1128h-1.0852v1.11h-0.10542c-0.23564-0.37207-0.68213-1.1968-2.0216-1.1968-1.7301 0-2.9518 1.3767-2.9518 3.5223 0 2.1766 1.265 3.3858 2.927 3.3858 1.3395 0 1.7797-0.76274 2.0154-1.1596h0.10542v1.3891c0 1.141-0.79995 1.6495-1.9038 1.6495-1.2216 0-1.6557-0.62012-1.9472-1.0232l-0.90537 0.58291c0.42788 0.76274 1.3146 1.4139 2.8525 1.4139zm-0.03101-3.8447c-1.3022 0-1.9782-0.99219-1.9782-2.4185 0-1.3829 0.65732-2.4991 1.9782-2.4991 1.2774 0 1.9472 1.0294 1.9472 2.4991 0 1.5131-0.68833 2.4185-1.9472 2.4185z"/><path d="m-40.912 162.25c1.6247 0 2.7347-0.88676 2.7347-2.1022 0-0.94878-0.58911-1.5751-1.8479-1.8728l-1.048-0.24805c-0.81235-0.19223-1.1658-0.47749-1.1658-0.99218 0-0.57671 0.62012-1.0046 1.4449-1.0046 0.89297 0 1.2836 0.48369 1.4759 0.97978l1.0108-0.26045c-0.31626-0.97358-1.0666-1.6681-2.4929-1.6681-1.4759 0-2.5673 0.83096-2.5673 2.0216 0 0.97358 0.60151 1.5937 1.8604 1.8914l1.1534 0.27285c0.68213 0.16123 1.017 0.47749 1.017 0.95498 0 0.57051-0.62012 1.048-1.5875 1.048-0.83096 0-1.3953-0.34107-1.5937-1.1038l-1.0604 0.25425c0.24805 1.1968 1.2402 1.8293 2.6665 1.8293z"/><path d="m-32.993 162.1h1.1162v-6.9329h-1.1162zm0.56431-8.0677c0.42788 0 0.78135-0.32866 0.78135-0.73794s-0.35347-0.73794-0.78135-0.73794c-0.42168 0-0.77515 0.32866-0.77515 0.73794s0.35347 0.73794 0.77515 0.73794z"/><path d="m-28.801 157.95c0-1.1844 0.75034-1.8604 1.7487-1.8604 0.96738 0 1.5627 0.63872 1.5627 1.7053v4.3098h1.1162v-4.4028c0-1.7549-0.94258-2.6169-2.344-2.6169-0.93018 0-1.6743 0.39067-2.1208 1.3705l-0.0062-1.2836h-1.0728v6.9329h1.1162z"/></g><g aria-label="GPN CTF 2025"><path d="m-92.662 189.6c3.6077 0 6.2026-2.2862 6.2026-6.0579v-1.7942h-5.9807v2.2379h3.1254c-0.04823 1.8424-1.283 3-3.328 3-2.3055 0-3.791-1.7267-3.791-4.7749s1.5338-4.7556 3.7524-4.7556c1.6013 0 2.6817 0.83923 3.0868 2.209h2.9903c-0.40514-2.836-2.8939-4.8231-6.1254-4.8231-3.7813 0-6.6945 2.7395-6.6945 7.3987 0 4.5434 2.7299 7.3601 6.762 7.3601z"/><path d="m-84.202 189.41h2.9421v-4.6977h2.5949c3.3087 0 5.209-1.9775 5.209-4.8231 0-2.8264-1.8714-4.8521-5.1415-4.8521h-5.6045zm2.9421-7.0707v-4.8714h2.1125c1.8039 0 2.6527 0.97427 2.6527 2.4212 0 1.4469-0.84887 2.4502-2.6431 2.4502z"/><path d="m-71.401 189.41h3.0096v-6.6077c0-0.84887-0.08682-2.3923-0.19293-4.1286 0.88746 1.7942 1.418 2.8457 2.2186 4.1383l4.1286 6.5981h3.2894v-14.373h-3.0096v6.8971c0 0.94534 0.07717 2.4887 0.18328 3.8971-0.62701-1.4952-1.2347-2.5852-1.8039-3.5209l-4.5434-7.2733h-3.2797z"/><path d="m-45.385 189.6c3.627 0 5.8649-2.4405 6.1929-5.1125h-2.9807c-0.28939 1.5627-1.5241 2.4984-3.164 2.4984-2.2186 0-3.7331-1.6399-3.7331-4.7556 0-3.0482 1.4952-4.7749 3.7428-4.7749 1.6399 0 2.8746 0.92604 3.1447 2.4887h2.9807c-0.42444-3.2315-2.9132-5.1029-6.1833-5.1029-3.791 0-6.6752 2.6913-6.6752 7.389 0 4.6688 2.8457 7.3698 6.6752 7.3698z"/><path d="m-37.629 177.48h4.3987v11.932h2.9518v-11.932h4.3891v-2.4405h-11.74z"/><path d="m-23.864 189.41h2.9421v-5.5177h5.8746v-2.4019h-5.8746v-4.0129h6.5112v-2.4405h-9.4534z"/><path d="m-81.173 214.11h10.167v-2.4212h-6.0772v-0.1061l2.1704-2.1415c2.9421-2.7106 3.7138-4.0418 3.7138-5.6527 0-2.4887-2.0257-4.2444-5.0643-4.2444-2.9807 0-5.045 1.8038-5.045 4.6013h2.8167c0-1.3987 0.86817-2.2476 2.209-2.2476 1.283 0 2.2283 0.791 2.2283 2.074 0 1.1576-0.72347 1.9678-2.0257 3.2412l-5.0932 4.7749z"/><path d="m-63.269 214.3c3.6463 0 5.7588-2.7106 5.7588-7.3698 0-4.6495-2.1318-7.389-5.7588-7.389-3.6174 0-5.7492 2.7395-5.7492 7.389 0 4.6592 2.1222 7.3698 5.7492 7.3698zm0-2.4405c-1.7749 0-2.7492-1.7749-2.7492-4.9293 0-3.1543 0.98392-4.9582 2.7492-4.9582 1.7749 0 2.7588 1.7942 2.7588 4.9582 0 3.1543-0.98392 4.9293-2.7588 4.9293z"/><path d="m-55.408 214.11h10.167v-2.4212h-6.0772v-0.1061l2.1704-2.1415c2.9421-2.7106 3.7138-4.0418 3.7138-5.6527 0-2.4887-2.0257-4.2444-5.0643-4.2444-2.9807 0-5.045 1.8038-5.045 4.6013h2.8167c0-1.3987 0.86817-2.2476 2.209-2.2476 1.283 0 2.2283 0.791 2.2283 2.074 0 1.1576-0.72347 1.9678-2.0257 3.2412l-5.0932 4.7749z"/><path d="m-37.755 214.3c3.1543 0 5.3151-2.074 5.3151-4.9678 0-2.7588-1.91-4.7267-4.5048-4.7267-1.2444 0-2.3248 0.50161-2.836 1.1961h-0.07717l0.3762-3.6366h6.2508v-2.4309h-8.6913l-0.69453 7.5434 2.6431 0.46302c0.44373-0.56913 1.3022-0.94533 2.1608-0.94533 1.4759 0 2.5177 1.0707 2.5177 2.6045 0 1.5241-1.0225 2.5659-2.4598 2.5659-1.2347 0-2.2379-0.76206-2.2958-1.8907h-2.8649c0.05788 2.4598 2.209 4.2251 5.1608 4.2251z"/></g></g></g><g transform="rotate(90 66.652 45.864)"><path d="m4.541 103.28h100v161.8h-100z" fill="#d8f999" stroke="#000" stroke-linecap="round" stroke-linejoin="round" stroke-width="2.5"/><path d="m4.541 103.28h100v23.903h-100z" fill="#2b7fff" stroke="#000" stroke-linecap="round" stroke-linejoin="round" stroke-width="2.5"/><g transform="translate(-9.5519 116.63)"><g transform="translate(47.673 -46.481)" stroke-linecap="round" stroke-linejoin="round" style="shape-inside:url(#rect11800);white-space:pre" aria-label="Web"><path d="m7.0656 113.73h1.2237l1.4056-5.2035c0.15985-0.59531 0.28112-1.152 0.40239-1.8245 0.12678 0.7221 0.25907 1.3009 0.40239 1.8245l1.4111 5.2035h1.2182l2.249-8.2131h-1.0804l-1.2954 5.0381c-0.17639 0.69453-0.34175 1.4056-0.48507 2.1663-0.15434-0.76068-0.3197-1.4718-0.50161-2.1663l-1.3174-5.0381h-1.1906l-1.3284 5.0381c-0.18741 0.70556-0.34727 1.4276-0.49609 2.1994-0.14883-0.7717-0.30868-1.4938-0.48507-2.1994l-1.3009-5.0381h-1.0694z"/><path d="m18.553 113.86c1.2623 0 2.1828-0.6339 2.4694-1.5655l-0.95912-0.26458c-0.23151 0.62839-0.77722 0.94809-1.5048 0.94809-1.0914 0-1.8411-0.70555-1.8907-1.9954h4.4538v-0.41341c0-2.2765-1.378-3.0813-2.6844-3.0813-1.6812 0-2.7726 1.3174-2.7726 3.2081 0 1.8962 1.1024 3.164 2.8884 3.164zm-1.8796-3.7152c0.06063-0.94258 0.70556-1.7749 1.7639-1.7749 1.0142 0 1.582 0.7276 1.6757 1.7749z"/><path d="m25.405 113.86c1.5379 0 2.6073-1.2347 2.6073-3.197 0-1.9513-1.0749-3.175-2.6128-3.175-1.2017 0-1.582 0.73863-1.7859 1.0638h-0.07717v-3.0372h-0.99219v8.2131h0.95912v-0.95361h0.11024c0.20395 0.34176 0.61736 1.0859 1.7915 1.0859zm-0.14883-0.88746c-1.119 0-1.7308-0.94809-1.7308-2.3206 0-1.3615 0.59531-2.2765 1.7308-2.2765 1.1686 0 1.7474 0.9977 1.7474 2.2765 0 1.2954-0.59531 2.3206-1.7474 2.3206z"/></g></g><g stop-color="#000000" stroke-linecap="round" stroke-linejoin="round" stroke-width=".26458" aria-label="$100"><g transform="matrix(2.0253 0 0 2.0253 -40.997 125.93)" fill="none" stroke="#000" stroke-linecap="round" stroke-linejoin="round" stroke-width=".52917"><path d="m40.077 58.661v-5.2917l2.6458 1.3229-2.6458 1.3229"/><path d="m39.019 56.544h2.3812"/><path d="m39.019 57.338h2.3812"/></g><path d="m41.304 247.01 0.95085 1e-5 -1e-6 -1.5372c2.4326-0.16639 3.8113-1.5927 3.8113-3.4072-4e-6 -2.2028-2.076-2.9159-3.3438-3.2646l-0.4675-0.12679-3e-6 -4.0015c1.1886 0.11886 2.0602 0.75275 2.179 1.7828l1.4738 1e-5c-0.07131-1.6878-1.5214-2.9872-3.6528-3.1299v-1.5768h-0.95085l-3e-6 1.6006c-1.9968 0.19808-3.4785 1.4659-3.4785 3.2883 0 1.5689 1.1093 2.5435 3.011 3.0823l0.4675 0.13469-4e-6 4.263c-1.1806-0.12678-2.1632-0.74484-2.2662-1.9255h-1.5451c0.12678 1.8542 1.5293 3.1299 3.8113 3.2804zm0.95084-2.8922 5e-6 -3.9936 0.0082-2.8e-4c1.2599 0.35656 2.3375 0.77652 2.3375 1.9175-3e-6 1.1331-0.98254 1.9255-2.3454 2.076zm-0.95085-5.713c-0.85576-0.24564-2.0126-0.71314-2.0126-1.8383 0-0.97462 0.78445-1.7194 2.0126-1.8859z" display="none"/><path d="m52.413 232.58h-1.8462l-2.5673 1.8938v1.6164l2.8525-2.1156h0.07924v10.412h1.4817z"/><path d="m58.958 244.55c2.6386 0 4.152-2.2107 4.152-6.0537 0-3.8272-1.5372-6.0696-4.152-6.0696s-4.152 2.2424-4.152 6.0696c0 3.8509 1.5214 6.0537 4.152 6.0537zm0-1.3153c-1.7274 0-2.702-1.7432-2.702-4.7384 0-3.0031 0.97462-4.7622 2.702-4.7622s2.702 1.7511 2.702 4.7622c0 2.9952-0.97462 4.7384-2.702 4.7384z"/><path d="m69.195 244.55c2.6386 0 4.152-2.2107 4.152-6.0537 0-3.8272-1.5372-6.0696-4.152-6.0696s-4.152 2.2424-4.152 6.0696c0 3.8509 1.5214 6.0537 4.152 6.0537zm0-1.3153c-1.7274 0-2.702-1.7432-2.702-4.7384 0-3.0031 0.97462-4.7622 2.702-4.7622s2.702 1.7511 2.702 4.7622c0 2.9952-0.97462 4.7384-2.702 4.7384z"/></g></g><g transform="rotate(90 116.64 -4.1262)" stroke-linecap="round" stroke-linejoin="round"><g stop-color="#000000" stroke-width=".26458" aria-label="$123"><g transform="matrix(2.0253 0 0 2.0253 -40.521 125.08)" fill="none" stroke="#000" stroke-linecap="round" stroke-linejoin="round" stroke-width=".52917"><path d="m40.077 58.661v-5.2917l2.6458 1.3229-2.6458 1.3229"/><path d="m39.019 56.544h2.3812"/><path d="m39.019 57.338h2.3812"/></g><path d="m41.779 246.15h0.95085l-1e-6 -1.5372c2.4326-0.16638 3.8113-1.5927 3.8113-3.4072-3e-6 -2.2028-2.076-2.9159-3.3438-3.2646l-0.4675-0.12678-3e-6 -4.0015c1.1886 0.11886 2.0602 0.75275 2.179 1.7828h1.4738c-0.07131-1.6878-1.5214-2.9872-3.6528-3.1299v-1.5768h-0.95085l4e-6 1.6006c-1.9968 0.19809-3.4785 1.4659-3.4785 3.2884 0 1.5689 1.1093 2.5435 3.011 3.0823l0.4675 0.1347-3e-6 4.263c-1.1806-0.12678-2.1632-0.74483-2.2662-1.9255h-1.5451c0.12678 1.8542 1.5293 3.1299 3.8113 3.2804zm0.95084-2.8922 5e-6 -3.9936 0.0082-2.8e-4c1.2599 0.35656 2.3375 0.77652 2.3375 1.9175-3e-6 1.1331-0.98255 1.9255-2.3454 2.076zm-0.95085-5.713c-0.85576-0.24564-2.0126-0.71313-2.0126-1.8383-1e-6 -0.97462 0.78445-1.7194 2.0126-1.8858z" display="none"/><path d="m52.69 232.58h-1.8462l-2.5673 1.8938v1.6164l2.8525-2.1156h0.07924v10.412h1.4817z"/><path d="m55.336 244.39h7.5196v-1.3233h-5.4436v-0.0951l2.5831-2.7495c2.0839-2.2186 2.6624-3.225 2.6624-4.5007 0-1.8462-1.4976-3.2963-3.6053-3.2963-2.0998 0-3.6845 1.4184-3.6845 3.5102h1.4421c0-1.3312 0.85576-2.2028 2.2028-2.2028 1.2599 0 2.2186 0.7686 2.2186 2.0047 0 1.0856-0.66559 1.8938-1.973 3.3121l-3.9222 4.255z"/><path d="m69.044 244.55c2.3137 0 4.0253-1.4342 4.0253-3.3676 0-1.4897-0.87953-2.5831-2.385-2.8288v-0.0951c1.2044-0.35657 1.9572-1.3312 1.9572-2.6624 0-1.6798-1.347-3.1695-3.5498-3.1695-2.076 0-3.7717 1.2757-3.8351 3.1299h1.45c0.04754-1.1489 1.1489-1.8224 2.3533-1.8224 1.2836 0 2.1077 0.7686 2.1077 1.9413 0 1.2203-0.95085 2.0126-2.3296 2.0126h-0.95877v1.3074h0.95877c1.7511 0 2.7416 0.89539 2.7416 2.1711 0 1.2282-1.0776 2.0602-2.5594 2.0602-1.347 0-2.4088-0.68937-2.496-1.8145h-1.5214c0.07924 1.87 1.7274 3.1378 4.0411 3.1378z"/></g><path d="m3.2911 166.33v98.751a1.2501 1.2501 0 0 0 1.2501 1.25h100a1.2501 1.2501 0 0 0 1.2495-1.25v-161.8a1.2501 1.2501 0 0 0-1.2495-1.2501h-36.95l-2.5001 2.5001h38.2v159.3h-97.5v-100z" color="#000000" style="-inkscape-stroke:none"/><path d="m42.441 127.18h62.1v-23.902h-38.199z" color="#000000" fill="#f0b100" stroke-width="2.5" style="-inkscape-stroke:none"/><path d="m41.191 128.43h63.35a1.2501 1.2501 0 0 0 1.2495-1.2495v-23.902a1.2501 1.2501 0 0 0-1.2495-1.2501h-36.95l-2.5001 2.5001h38.2v21.402h-59.6z" color="#000000" style="-inkscape-stroke:none"/><g transform="translate(-15.425 109.05)"><g transform="translate(33.827 -34.509)" style="shape-inside:url(#rect11814);white-space:pre" aria-label="engineering"><path d="m8.0027 113.86c1.2623 0 2.1828-0.6339 2.4694-1.5655l-0.95912-0.26458c-0.23151 0.62839-0.77721 0.94809-1.5048 0.94809-1.0914 0-1.8411-0.70555-1.8907-1.9954h4.4538v-0.41341c0-2.2765-1.378-3.0813-2.6844-3.0813-1.6812 0-2.7726 1.3174-2.7726 3.2081 0 1.8962 1.1024 3.164 2.8884 3.164zm-1.8796-3.7152c0.060634-0.94258 0.70556-1.7749 1.7639-1.7749 1.0142 0 1.582 0.7276 1.6757 1.7749z"/><path d="m12.986 110.03c0-1.0528 0.66697-1.6536 1.5544-1.6536 0.8599 0 1.3891 0.56775 1.3891 1.5158v3.831h0.99219v-3.9136c0-1.5599-0.83785-2.3261-2.0836-2.3261-0.82682 0-1.4883 0.34727-1.8852 1.2182l-0.0055-1.141h-0.9536v6.1626h0.99219z"/><path d="m21.16 116.16c1.4993 0 2.6844-0.68351 2.6844-2.2765v-6.3224h-0.96463v0.98668h-0.09371c-0.20946-0.33073-0.60634-1.0638-1.797-1.0638-1.5379 0-2.6238 1.2237-2.6238 3.1309 0 1.9348 1.1245 3.0096 2.6017 3.0096 1.1906 0 1.582-0.678 1.7915-1.0308h0.09371v1.2347c0 1.0142-0.71107 1.4662-1.6922 1.4662-1.0859 0-1.4717-0.55122-1.7308-0.90951l-0.80478 0.51815c0.38034 0.67799 1.1686 1.2568 2.5356 1.2568zm-0.02756-3.4175c-1.1576 0-1.7584-0.88194-1.7584-2.1497 0-1.2292 0.58429-2.2214 1.7584-2.2214 1.1355 0 1.7308 0.91502 1.7308 2.2214 0 1.345-0.61185 2.1497-1.7308 2.1497z"/><path d="m25.586 113.73h0.99219v-6.1626h-0.99219zm0.50161-7.1713c0.38034 0 0.69453-0.29215 0.69453-0.65595s-0.31419-0.65595-0.69453-0.65595c-0.37483 0-0.68902 0.29215-0.68902 0.65595s0.31419 0.65595 0.68902 0.65595z"/><path d="m29.313 110.03c0-1.0528 0.66697-1.6536 1.5544-1.6536 0.8599 0 1.3891 0.56775 1.3891 1.5158v3.831h0.99219v-3.9136c0-1.5599-0.83785-2.3261-2.0836-2.3261-0.82682 0-1.4883 0.34727-1.8852 1.2182l-0.0055-1.141h-0.9536v6.1626h0.99219z"/><path d="m37.581 113.86c1.2623 0 2.1828-0.6339 2.4694-1.5655l-0.95912-0.26458c-0.23151 0.62839-0.77721 0.94809-1.5048 0.94809-1.0914 0-1.8411-0.70555-1.8907-1.9954h4.4538v-0.41341c0-2.2765-1.378-3.0813-2.6844-3.0813-1.6812 0-2.7726 1.3174-2.7726 3.2081 0 1.8962 1.1024 3.164 2.8884 3.164zm-1.8796-3.7152c0.06063-0.94258 0.70556-1.7749 1.7639-1.7749 1.0142 0 1.582 0.7276 1.6757 1.7749z"/><path d="m44.162 113.86c1.2623 0 2.1828-0.6339 2.4694-1.5655l-0.95912-0.26458c-0.23151 0.62839-0.77721 0.94809-1.5048 0.94809-1.0914 0-1.8411-0.70555-1.8907-1.9954h4.4538v-0.41341c0-2.2765-1.378-3.0813-2.6844-3.0813-1.6812 0-2.7726 1.3174-2.7726 3.2081 0 1.8962 1.1024 3.164 2.8884 3.164zm-1.8796-3.7152c0.06063-0.94258 0.70556-1.7749 1.7639-1.7749 1.0142 0 1.582 0.7276 1.6757 1.7749z"/><path d="m48.153 113.73h0.99219v-3.8585c0-0.83233 0.65044-1.4332 1.5379-1.4332 0.26458 0 0.53468 0.0441 0.59531 0.0551v-0.99771c-0.11576-6e-3 -0.35829-0.0165-0.50161-0.0165-0.73312 0-1.3725 0.41341-1.5985 1.0363h-0.06615v-0.94809h-0.95912z"/><path d="m52.579 113.73h0.99219v-6.1626h-0.99219zm0.50161-7.1713c0.38034 0 0.69453-0.29215 0.69453-0.65595s-0.31419-0.65595-0.69453-0.65595c-0.37483 0-0.68902 0.29215-0.68902 0.65595s0.31419 0.65595 0.68902 0.65595z"/><path d="m56.306 110.03c0-1.0528 0.66697-1.6536 1.5544-1.6536 0.8599 0 1.3891 0.56775 1.3891 1.5158v3.831h0.99219v-3.9136c0-1.5599-0.83785-2.3261-2.0836-2.3261-0.82682 0-1.4883 0.34727-1.8852 1.2182l-0.0055-1.141h-0.9536v6.1626h0.99219z"/><path d="m64.48 116.16c1.4993 0 2.6844-0.68351 2.6844-2.2765v-6.3224h-0.96463v0.98668h-0.09371c-0.20946-0.33073-0.60634-1.0638-1.797-1.0638-1.5379 0-2.6238 1.2237-2.6238 3.1309 0 1.9348 1.1245 3.0096 2.6017 3.0096 1.1906 0 1.582-0.678 1.7915-1.0308h0.09371v1.2347c0 1.0142-0.71107 1.4662-1.6922 1.4662-1.0859 0-1.4717-0.55122-1.7308-0.90951l-0.80478 0.51815c0.38034 0.67799 1.1686 1.2568 2.5356 1.2568zm-0.02756-3.4175c-1.1576 0-1.7584-0.88194-1.7584-2.1497 0-1.2292 0.58429-2.2214 1.7584-2.2214 1.1355 0 1.7308 0.91502 1.7308 2.2214 0 1.345-0.61185 2.1497-1.7308 2.1497z"/></g><g transform="translate(43.726 -45.589)" style="shape-inside:url(#rect11814);white-space:pre" aria-label="Reverse"><path d="m5.5332 113.73h1.0473v-3.186h1.7694c0.066146 0 0.12678 0 0.19293-6e-3l1.7088 3.1915h1.2127l-1.8411-3.379c1.0363-0.3638 1.5214-1.2072 1.5214-2.2986 0-1.4662-0.88194-2.5356-2.8002-2.5356h-2.8112zm1.0473-4.1176v-3.175h1.7088c1.3064 0 1.8135 0.63941 1.8135 1.6151 0 0.96463-0.50712 1.5599-1.8025 1.5599z"/><path d="m15.102 113.86c1.2623 0 2.1828-0.6339 2.4694-1.5655l-0.95912-0.26458c-0.23151 0.62839-0.77721 0.94809-1.5048 0.94809-1.0914 0-1.8411-0.70555-1.8907-1.9954h4.4538v-0.41341c0-2.2765-1.378-3.0813-2.6844-3.0813-1.6812 0-2.7726 1.3174-2.7726 3.2081 0 1.8962 1.1024 3.164 2.8884 3.164zm-1.8796-3.7152c0.06063-0.94258 0.70556-1.7749 1.7639-1.7749 1.0142 0 1.582 0.7276 1.6757 1.7749z"/><path d="m20.653 113.73h1.0418l2.3537-6.1626h-1.0859l-1.3119 3.6546c-0.19293 0.53468-0.33624 1.0749-0.47405 1.5875-0.14332-0.51264-0.28663-1.0528-0.47956-1.5875l-1.3119-3.6546h-1.0859z"/><path d="m27.587 113.86c1.2623 0 2.1828-0.6339 2.4694-1.5655l-0.95912-0.26458c-0.23151 0.62839-0.77721 0.94809-1.5048 0.94809-1.0914 0-1.8411-0.70555-1.8907-1.9954h4.4538v-0.41341c0-2.2765-1.378-3.0813-2.6844-3.0813-1.6812 0-2.7726 1.3174-2.7726 3.2081 0 1.8962 1.1024 3.164 2.8884 3.164zm-1.8796-3.7152c0.06063-0.94258 0.70556-1.7749 1.7639-1.7749 1.0142 0 1.582 0.7276 1.6757 1.7749z"/><path d="m31.578 113.73h0.99219v-3.8585c0-0.83233 0.65044-1.4332 1.5379-1.4332 0.26458 0 0.53468 0.0441 0.59531 0.0551v-0.99771c-0.11576-6e-3 -0.35829-0.0165-0.50161-0.0165-0.73312 0-1.3725 0.41341-1.5985 1.0363h-0.06615v-0.94809h-0.95912z"/><path d="m37.923 113.86c1.4442 0 2.4309-0.78824 2.4309-1.8686 0-0.84336-0.52366-1.4001-1.6426-1.6647l-0.93155-0.22048c-0.72209-0.17088-1.0363-0.42444-1.0363-0.88195 0-0.51263 0.55122-0.89297 1.2843-0.89297 0.79375 0 1.141 0.42995 1.3119 0.87092l0.89848-0.23151c-0.28112-0.86541-0.94809-1.4828-2.2159-1.4828-1.3119 0-2.282 0.73863-2.282 1.797 0 0.8654 0.53468 1.4166 1.6536 1.6812l1.0253 0.24254c0.60634 0.14332 0.90399 0.42444 0.90399 0.84887 0 0.50712-0.55122 0.93156-1.4111 0.93156-0.73863 0-1.2402-0.30317-1.4166-0.98117l-0.94258 0.226c0.22049 1.0638 1.1024 1.6261 2.3702 1.6261z"/><path d="m44.377 113.86c1.2623 0 2.1828-0.6339 2.4694-1.5655l-0.95912-0.26458c-0.23151 0.62839-0.77721 0.94809-1.5048 0.94809-1.0914 0-1.8411-0.70555-1.8907-1.9954h4.4538v-0.41341c0-2.2765-1.378-3.0813-2.6844-3.0813-1.6812 0-2.7726 1.3174-2.7726 3.2081 0 1.8962 1.1024 3.164 2.8884 3.164zm-1.8796-3.7152c0.06063-0.94258 0.70556-1.7749 1.7639-1.7749 1.0142 0 1.582 0.7276 1.6757 1.7749z"/></g></g></g><g transform="rotate(90 166.64 -54.126)"><g stop-color="#000000" stroke-linecap="round" stroke-linejoin="round" stroke-width=".26458" aria-label="$125"><g transform="matrix(2.0253 0 0 2.0253 -40.402 125.04)" fill="none" stroke="#000" stroke-linecap="round" stroke-linejoin="round" stroke-width=".52917"><path d="m40.077 58.661v-5.2917l2.6458 1.3229-2.6458 1.3229"/><path d="m39.019 56.544h2.3812"/><path d="m39.019 57.338h2.3812"/></g><path d="m41.899 246.11h0.95086l-4e-6 -1.5372c2.4326-0.1664 3.8113-1.5927 3.8113-3.4072-5e-6 -2.2028-2.076-2.9159-3.3438-3.2646l-0.4675-0.12679v-4.0015c1.1886 0.11886 2.0602 0.75276 2.179 1.7828l1.4738-1e-5c-0.07131-1.6877-1.5214-2.9872-3.6528-3.1299l-1e-6 -1.5768h-0.95085l-1e-6 1.6006c-1.9968 0.19808-3.4785 1.4659-3.4785 3.2883 0 1.5689 1.1093 2.5435 3.011 3.0823l0.4675 0.1347-3e-6 4.263c-1.1806-0.12678-2.1632-0.74483-2.2662-1.9255h-1.5451c0.12677 1.8542 1.5293 3.1299 3.8113 3.2804zm0.95085-2.8922-2e-6 -3.9936 0.0082-2.8e-4c1.2599 0.35657 2.3375 0.77652 2.3375 1.9175-3e-6 1.1331-0.98254 1.9255-2.3454 2.076zm-0.95084-5.713c-0.85576-0.24564-2.0126-0.71314-2.0126-1.8383 0-0.97462 0.78445-1.7194 2.0126-1.8858z" display="none"/><path d="m52.809 232.54h-1.8462l-2.5673 1.8938v1.6164l2.8525-2.1156h0.07924v10.412h1.4817z"/><path d="m55.456 244.35h7.5196v-1.3233h-5.4436v-0.0951l2.5831-2.7495c2.0839-2.2186 2.6624-3.225 2.6624-4.5007 0-1.8462-1.4976-3.2963-3.6053-3.2963-2.0998 0-3.6845 1.4184-3.6845 3.5102h1.4421c0-1.3312 0.85576-2.2028 2.2028-2.2028 1.2599 0 2.2186 0.7686 2.2186 2.0047 0 1.0856-0.66559 1.8938-1.973 3.3121l-3.9222 4.255z"/><path d="m69.092 244.51c2.2741 0 3.9381-1.664 3.9381-3.9302 0-2.282-1.5927-3.9539-3.7558-3.9539-0.81614 0-1.6006 0.28525-2.0839 0.68936h-0.06339l0.40411-3.4468h4.9444v-1.3233h-6.2122l-0.69729 5.8477 1.4104 0.17432c0.4675-0.35656 1.2916-0.61805 2.0206-0.61805 1.4817 0 2.5594 1.1331 2.5594 2.6544 0 1.4976-1.038 2.5831-2.4643 2.5831-1.1886 0-2.1553-0.76068-2.2503-1.8145h-1.458c0.07924 1.8066 1.6323 3.1378 3.7083 3.1378z"/></g><path d="m3.6899 265.94a1.2501 1.2501 0 0 0 0.85111 0.39377h100a1.2501 1.2501 0 0 0 1.25-1.25v-101.25l-2.5001 2.5001v97.501h-97.495z" color="#000000" stroke-linecap="round" stroke-linejoin="round" style="-inkscape-stroke:none"/><g transform="translate(-33.899 115.63)"><path transform="translate(1.1667e-6)" d="m122.42 65.475c0.14438 0.05421 0.30235 0.10156 0.47408 0.14217l1.0253 0.24254c0.60634 0.14332 0.90399 0.42444 0.90399 0.84887 0 0.50712-0.55121 0.93156-1.4111 0.93156-0.73863 0-1.2402-0.30317-1.4166-0.98117l-0.94258 0.226c0.22048 1.0638 1.1024 1.6261 2.3702 1.6261 1.4442 0 2.4309-0.78824 2.4309-1.8686 0-0.84336-0.52366-1.4001-1.6426-1.6647l-0.93155-0.22048c-0.0399-0.0095-0.0786-0.01915-0.11607-0.02913" stroke-linecap="round" stroke-linejoin="round" style="white-space:pre"/></g></g><g transform="rotate(90 152.24 100.5)" stroke-linecap="round" stroke-linejoin="round"><path d="m140.81 127.01a0.86328 1.0547 0 0 0-0.86359 1.0545v9.891a0.86328 1.0547 0 0 0 0.86359 1.0545h13.273a0.86328 1.0547 0 0 0 0.86315-1.0545v-9.891a0.86328 1.0547 0 0 0-0.86315-1.0545z" color="#000000" fill="#008236" stroke-width="1.9082" style="-inkscape-stroke:none"/><path d="m140.81 127.01a0.86328 1.0547 0 0 0-0.86341 1.0542v4.9454h15v-4.9454a0.86328 1.0547 0 0 0-0.8629-1.0542z" color="#000000" fill-opacity=".2" stroke-width="1.9082" style="-inkscape-stroke:none"/><path d="m145.7 136.01a0.75 0.75 0 0 1-0.75 0.75 0.75 0.75 0 0 1-0.75-0.75 0.75 0.75 0 0 1 0.75-0.75 0.75 0.75 0 0 1 0.75 0.75z" fill-opacity=".2" stroke-width="2.2392"/></g><g transform="rotate(180 72.367 63.64)" stroke-linecap="round" stroke-linejoin="round"><path d="m140.81 127.01a0.86328 1.0547 0 0 0-0.86359 1.0545v9.891a0.86328 1.0547 0 0 0 0.86359 1.0545h13.273a0.86328 1.0547 0 0 0 0.86315-1.0545v-9.891a0.86328 1.0547 0 0 0-0.86315-1.0545z" color="#000000" fill="#c10007" stroke-width="1.9082" style="-inkscape-stroke:none"/><path d="m140.81 127.01a0.86328 1.0547 0 0 0-0.86341 1.0542v4.9454h15v-4.9454a0.86328 1.0547 0 0 0-0.8629-1.0542z" color="#000000" fill-opacity=".2" stroke-width="1.9082" style="-inkscape-stroke:none"/><path d="m145.7 136.01a0.75 0.75 0 0 1-0.75 0.75 0.75 0.75 0 0 1-0.75-0.75 0.75 0.75 0 0 1 0.75-0.75 0.75 0.75 0 0 1 0.75 0.75z" fill-opacity=".2" stroke-width="2.2392"/></g></g></g></svg>
