<?xml version="1.0" encoding="UTF-8" standalone="no"?>
<!-- Generator: Adobe Illustrator 23.0.1, SVG Export Plug-In . SVG Version: 6.00 Build 0)  -->
<svg version="1.1" id="Ebene_1" x="0px" y="0px" viewBox="0 0 276.38237 120" xml:space="preserve" sodipodi:docname="Logo_Telemaxx_RGB_Klee.svg" width="276.38239" height="120" inkscape:version="1.2.2 (732a01da63, 2022-12-09, custom)" xmlns:inkscape="http://www.inkscape.org/namespaces/inkscape" xmlns:sodipodi="http://sodipodi.sourceforge.net/DTD/sodipodi-0.dtd" xmlns="http://www.w3.org/2000/svg" xmlns:svg="http://www.w3.org/2000/svg"><defs id="defs41"/><sodipodi:namedview id="namedview39" pagecolor="#505050" bordercolor="#eeeeee" borderopacity="1" inkscape:showpageshadow="0" inkscape:pageopacity="0" inkscape:pagecheckerboard="0" inkscape:deskcolor="#505050" showgrid="false" inkscape:zoom="2.4754405" inkscape:cx="135.32945" inkscape:cy="64.029007" inkscape:window-width="1920" inkscape:window-height="1016" inkscape:window-x="0" inkscape:window-y="27" inkscape:window-maximized="1" inkscape:current-layer="Ebene_1"/>
<style type="text/css" id="style18">
	.st0{fill:#3C8C3C;}
	.st1{fill-rule:evenodd;clip-rule:evenodd;fill:#3C8C3C;}
</style>

<g id="g36" transform="matrix(0.97678744,0,0,0.97678744,-44.516898,-42.806878)">
	<polygon class="st0" points="65.7,59.4 65.7,140.1 74.2,140.1 74.2,59.4 88.9,59.4 88.9,50.9 51,50.9 51,59.4 " id="polygon20"/>
	<path class="st1" d="m 92.2,84.5 v 20.1 h 8.5 V 84.5 Z m -8.5,43.6 V 88 c 0,-7 5.7,-12.7 12.7,-12.7 7,0 12.7,5.7 12.7,12.7 v 25 h -17 v 18.6 h 8.5 v -8.5 h 8.5 v 4.9 c 0,7 -5.7,12.7 -12.7,12.7 -7,0.1 -12.7,-5.6 -12.7,-12.6 z" id="path22"/>
	<path class="st0" d="M 118.5,140.1 H 127 V 67.5 c 0,-2.3 -0.9,-4.5 -2.5,-6 -1.6,-1.5 -3.7,-2.4 -6,-2.5 z" id="path24"/>
	<path class="st1" d="m 144.9,84.5 v 20.1 h 8.5 V 84.5 Z m -8.5,43.6 V 88 c 0,-7 5.7,-12.7 12.7,-12.7 7,0 12.7,5.7 12.7,12.7 v 25 h -17 v 18.6 h 8.5 v -8.5 h 8.5 v 4.9 c 0,7 -5.7,12.7 -12.7,12.7 -7,0.1 -12.7,-5.6 -12.7,-12.6 z" id="path26"/>
	<path class="st0" d="m 170.7,140.1 h 8.5 V 84.5 h 8.5 v 55.6 h 8.5 V 84.5 h 8.5 v 55.6 h 8.5 V 84.5 c 0,-4.7 -3.8,-8.5 -8.5,-8.5 h -34 z" id="path28"/>
	<path class="st1" d="m 248.5,84.5 c 0,-4.7 -3.8,-8.5 -8.5,-8.5 h -15.1 v 8.5 H 240 v 8.8 h -8.5 c -4.7,0 -8.5,3.8 -8.5,8.5 v 31.3 c 0,4.7 3.8,8.5 8.5,8.5 h 17 z m -17,17.3 h 8.5 v 31.3 h -8.5 z" id="path30"/>
	<polygon class="st0" points="263.9,140.1 269.4,120.7 269.6,120.7 275.2,140.1 283.9,140.1 273.9,108.8 283.9,76 275.2,76 269.6,96.9 269.4,96.9 263.9,76 255.2,76 265.2,108.8 255.2,140.1 " id="polygon32"/>
	<polygon class="st0" points="291.1,159.6 302.2,120.7 302.4,120.7 307.9,140.1 316.6,140.1 306.7,108.8 323.1,51 314.4,51 302.4,96.9 302.2,96.9 296.7,76 287.9,76 297.9,108.8 282.3,159.6 " id="polygon34"/>
</g></svg>