<?xml version="1.0" encoding="UTF-8"?>
<!-- Created with Inkscape (http://www.inkscape.org/) -->
<svg width="118.53mm" height="118.53mm" version="1.1" viewBox="0 0 118.53 118.53" xmlns="http://www.w3.org/2000/svg" xmlns:xlink="http://www.w3.org/1999/xlink">
 <defs>
  <radialGradient id="radialGradient1193" cx="81.502" cy="76.483" r="50.8" gradientUnits="userSpaceOnUse">
   <stop stop-color="#1a1a1a" offset=".91349"/>
   <stop stop-color="#262626" offset="1"/>
  </radialGradient>
  <radialGradient id="radialGradient5396" cx="81.502" cy="76.483" r="59.265" gradientTransform="translate(0)" gradientUnits="userSpaceOnUse">
   <stop stop-color="#1a1a1a" offset=".88975"/>
   <stop stop-color="#262626" offset="1"/>
  </radialGradient>
 </defs>
 <g transform="translate(-22.236 -17.216)">
  <path d="m126.27 21.491c3.7526 3.0548 7.1829 6.4858 10.237 10.239 0.36889 0.45338 0.37004 1.1992 0.0101 1.6598l-6.1407 7.8582c-0.35989 0.46056-0.9261 0.4476-1.274-0.02204-3.4792-4.6961-7.6339-8.8517-12.329-12.332-0.46957-0.34805-0.48242-0.91429-0.0218-1.2741l7.859-6.1394c0.46062-0.35983 1.2064-0.35854 1.6598 0.01046z" fill="#030303" stop-color="#000000"/>
  <path d="m36.738 21.491c-3.7526 3.0548-7.1829 6.4858-10.237 10.239-0.3689 0.45338-0.37005 1.1992-0.01015 1.6598l6.1407 7.8582c0.3599 0.46056 0.9261 0.4476 1.274-0.02204 3.4792-4.6961 7.6339-8.8517 12.329-12.332 0.46957-0.34805 0.48242-0.91429 0.0218-1.2741l-7.859-6.1394c-0.46062-0.35983-1.2064-0.35854-1.6597 0.01046z" fill="#030303" stop-color="#000000"/>
  <path d="m80.444 17.225c-11.162 0.20015-22.041 3.5492-31.383 9.661-0.48912 0.31999-1.2538 0.29556-1.7144-0.06428l-5.2965-4.1379c-0.4606-0.35985-1.2154-0.37041-1.6798-0.01547-4.7731 3.6482-9.0397 7.9152-12.687 12.689-0.35489 0.46442-0.34426 1.2193 0.01561 1.6799l4.1388 5.297c0.35987 0.46058 0.38438 1.2253 0.06445 1.7145-6.1088 9.3404-9.4562 20.217-9.6564 31.375-0.01049 0.5844-0.01052 1.5322-2.86e-4 2.1166 0.55842 31.892 26.307 57.641 58.199 58.199 0.5844 0.0102 1.5322 0.0102 2.1166 0 31.892-0.55842 57.641-26.307 58.199-58.199 0.0102-0.5844 0.0102-1.5322-2.8e-4 -2.1166-0.20027-11.159-3.5477-22.035-9.6564-31.375-0.31992-0.48916-0.29542-1.2539 0.0645-1.7145l4.1388-5.297c0.35988-0.46058 0.37051-1.2154 0.0156-1.6799-3.6477-4.7735-7.9142-9.0405-12.687-12.689-0.46439-0.35494-1.2192-0.34437-1.6798 0.01547l-5.2964 4.1379c-0.4606 0.35985-1.2253 0.38427-1.7144 0.06428-9.3421-6.1118-20.221-9.4608-31.383-9.661-0.5844-0.01048-1.5322-0.01048-2.1166-1e-6zm36.02 11.407-0.20671-0.1509zm1.4469 1.0909-0.19895-0.15348zm4.2483 3.6432-0.12661-0.11989zm1.3327 1.2971-0.16589-0.16588zm1.2392 1.2805c-0.0842-0.08837-0.0842-0.08837-0.0842-0.08837zm3.6716 4.3129-0.12661-0.16382zm1.0919 1.4588-0.12092-0.16536z" fill="url(#radialGradient5396)" stop-color="#000000"/>
  <circle cx="81.502" cy="76.483" r="50.8" fill="url(#radialGradient1193)" stop-color="#000000"/>
  <circle cx="81.502" cy="76.483" r="42.333" stop-color="#000000"/>
 </g>
</svg>
